Coordinates
version=1
nRows=10
nColumns=38
inDegrees=yes

Units are S.I. units (second, meters, Newtons, ...)
Angles are in degrees.

endheader
time	pelvis_tilt	pelvis_list	pelvis_rotation	pelvis_tx	pelvis_ty	pelvis_tz	hip_flexion_r	hip_adduction_r	hip_rotation_r	knee_angle_r	ankle_angle_r	subtalar_angle_r	mtp_angle_r	hip_flexion_l	hip_adduction_l	hip_rotation_l	knee_angle_l	ankle_angle_l	subtalar_angle_l	mtp_angle_l	lumbar_extension	lumbar_bending	lumbar_rotation	arm_flex_r	arm_add_r	arm_rot_r	elbow_flex_r	pro_sup_r	wrist_flex_r	wrist_dev_r	arm_flex_l	arm_add_l	arm_rot_l	elbow_flex_l	pro_sup_l	wrist_flex_l	wrist_dev_l
      4.01000000	     -5.93521732	     -3.94719341	     86.00459788	     -0.22440296	      1.05783407	     -0.39411799	     16.98615094	     -7.35464577	      4.13954329	    -91.79866525	      0.34296763	      0.00000000	      0.00000000	     26.04742433	      7.57523952	     -1.45640783	    -38.70063627	     13.83072718	      0.00000000	      0.00000000	    -15.20027252	    -13.89814029	      5.99594428	      0.00000000	      0.00000000	      0.00000000	     90.00000000	     90.00000000	      0.00000000	      0.00000000	      0.00000000	      0.00000000	      0.00000000	     90.00000000	     90.00000000	      0.00000000	      0.00000000
      4.01500000	     -6.39038136	     -3.85744398	     86.07752726	     -0.22518355	      1.05615425	     -0.39303684	     18.29808373	     -7.99922106	      4.15505602	    -92.66900605	      0.96118171	      0.00000000	      0.00000000	     25.33817955	      8.20634317	     -1.41244837	    -39.26241951	     14.94704174	      0.00000000	      0.00000000	    -15.53592228	    -14.34217004	      5.33129604	      0.00000000	      0.00000000	      0.00000000	     90.00000000	     90.00000000	      0.00000000	      0.00000000	      0.00000000	      0.00000000	      0.00000000	     90.00000000	     90.00000000	      0.00000000	      0.00000000
      4.02000000	     -6.79775563	     -3.77410715	     86.13670200	     -0.22586134	      1.05489113	     -0.39210277	     19.61445004	     -8.54755992	      4.20300051	    -93.35898512	      1.53026912	      0.00000000	      0.00000000	     24.49886394	      8.78073427	     -1.35593083	    -39.59029361	     15.94322602	      0.00000000	      0.00000000	    -15.84687122	    -14.72163664	      4.65599904	      0.00000000	      0.00000000	      0.00000000	     90.00000000	     90.00000000	      0.00000000	      0.00000000	      0.00000000	      0.00000000	      0.00000000	     90.00000000	     90.00000000	      0.00000000	      0.00000000
      4.02500000	     -7.15119158	     -3.70116401	     86.18017287	     -0.22644852	      1.05404475	     -0.39132186	     20.92784941	     -8.99513772	      4.26915052	    -93.86344965	      2.04654102	      0.00000000	      0.00000000	     23.54511100	      9.29157893	     -1.27925807	    -39.70576642	     16.82540304	      0.00000000	      0.00000000	    -16.12461459	    -15.02759925	      3.96397987	      0.00000000	      0.00000000	      0.00000000	     90.00000000	     90.00000000	      0.00000000	      0.00000000	      0.00000000	      0.00000000	      0.00000000	     90.00000000	     90.00000000	      0.00000000	      0.00000000
      4.03000000	     -7.44490546	     -3.64308201	     86.20830993	     -0.22696611	      1.05359572	     -0.39067975	     22.23122372	     -9.34034704	      4.33820914	    -94.17991322	      2.50792333	      0.00000000	      0.00000000	     22.49424226	      9.73307104	     -1.17321311	    -39.63468791	     17.60073661	      0.00000000	      0.00000000	    -16.36255926	    -15.25209268	      3.24959009	      0.00000000	      0.00000000	      0.00000000	     90.00000000	     90.00000000	      0.00000000	      0.00000000	      0.00000000	      0.00000000	      0.00000000	     90.00000000	     90.00000000	      0.00000000	      0.00000000
      4.03500000	     -7.67349442	     -3.60413580	     86.22420486	     -0.22743630	      1.05351066	     -0.39015432	     23.51849187	     -9.58429376	      4.39466752	    -94.30823996	      2.91393997	      0.00000000	      0.00000000	     21.36428388	     10.10103972	     -1.02840578	    -39.40419621	     18.27584892	      0.00000000	      0.00000000	    -16.55596169	    -15.38836883	      2.50824652	      0.00000000	      0.00000000	      0.00000000	     90.00000000	     90.00000000	      0.00000000	      0.00000000	      0.00000000	      0.00000000	      0.00000000	     90.00000000	     90.00000000	      0.00000000	      0.00000000
      4.04000000	     -7.83235873	     -3.58782571	     86.23350420	     -0.22787820	      1.05374895	     -0.38972660	     24.78469425	     -9.73057192	      4.42372245	    -94.25015351	      3.26564217	      0.00000000	      0.00000000	     20.17323574	     10.39316365	     -0.83665654	    -39.04039592	     18.85566803	      0.00000000	      0.00000000	    -16.70168700	    -15.43120239	      1.73702718	      0.00000000	      0.00000000	      0.00000000	     90.00000000	     90.00000000	      0.00000000	      0.00000000	      0.00000000	      0.00000000	      0.00000000	     90.00000000	     90.00000000	      0.00000000	      0.00000000
      4.04500000	     -7.91844084	     -3.59670364	     86.24367437	     -0.22830786	      1.05427003	     -0.38938506	     26.02568102	     -9.78502085	      4.41216854	    -94.00870269	      3.56546891	      0.00000000	      0.00000000	     18.93837692	     10.60879498	     -0.59213650	    -38.56701368	     19.34273033	      0.00000000	      0.00000000	    -16.79787095	    -15.37724309	      0.93515906	      0.00000000	      0.00000000	      0.00000000	     90.00000000	     90.00000000	      0.00000000	      0.00000000	      0.00000000	      0.00000000	      0.00000000	     90.00000000	     90.00000000	      0.00000000	      0.00000000
      4.05000000	     -7.93097728	     -3.63260285	     86.26284389	     -0.22874006	      1.05503947	     -0.38912289	     27.23752256	     -9.75544110	      4.34917344	    -93.58776579	      3.81703279	      0.00000000	      0.00000000	     17.67555680	     10.74859889	     -0.29218155	    -38.00496064	     19.73691518	      0.00000000	      0.00000000	    -16.84357076	    -15.22537410	      0.10434364	      0.00000000	      0.00000000	      0.00000000	     90.00000000	     90.00000000	      0.00000000	      0.00000000	      0.00000000	      0.00000000	      0.00000000	     90.00000000	     90.00000000	      0.00000000	      0.00000000
      4.05500000	     -7.87193769	     -3.69695202	     86.29848635	     -0.22918978	      1.05603206	     -0.38893280	     28.41592063	     -9.65123456	      4.22685548	    -92.99160454	      4.02484155	      0.00000000	      0.00000000	     16.39860186	     10.81424968	      0.06223932	    -37.37249007	     20.03555300	      0.00000000	      0.00000000	    -16.83847554	    -14.97702054	     -0.75111941	      0.00000000	      0.00000000	      0.00000000	     90.00000000	     90.00000000	      0.00000000	      0.00000000	      0.00000000	      0.00000000	      0.00000000	     90.00000000	     90.00000000	      0.00000000	      0.00000000
